<svg width="185" height="108" viewBox="0 0 185 108" fill="none" xmlns="http://www.w3.org/2000/svg">
<path d="M25.1758 77.5625V106H21.3867L7.07031 84.0664V106H3.30078V77.5625H7.07031L21.4453 99.5547V77.5625H25.1758ZM30.3516 95.668V95.2188C30.3516 93.6953 30.5729 92.2826 31.0156 90.9805C31.4583 89.6654 32.0964 88.526 32.9297 87.5625C33.763 86.5859 34.7721 85.8307 35.957 85.2969C37.1419 84.75 38.4701 84.4766 39.9414 84.4766C41.4258 84.4766 42.7604 84.75 43.9453 85.2969C45.1432 85.8307 46.1589 86.5859 46.9922 87.5625C47.8385 88.526 48.4831 89.6654 48.9258 90.9805C49.3685 92.2826 49.5898 93.6953 49.5898 95.2188V95.668C49.5898 97.1914 49.3685 98.6042 48.9258 99.9062C48.4831 101.208 47.8385 102.348 46.9922 103.324C46.1589 104.288 45.1497 105.043 43.9648 105.59C42.793 106.124 41.4648 106.391 39.9805 106.391C38.4961 106.391 37.1615 106.124 35.9766 105.59C34.7917 105.043 33.776 104.288 32.9297 103.324C32.0964 102.348 31.4583 101.208 31.0156 99.9062C30.5729 98.6042 30.3516 97.1914 30.3516 95.668ZM33.9648 95.2188V95.668C33.9648 96.7227 34.0885 97.7188 34.3359 98.6562C34.5833 99.5807 34.9544 100.401 35.4492 101.117C35.957 101.833 36.5885 102.4 37.3438 102.816C38.099 103.22 38.9779 103.422 39.9805 103.422C40.9701 103.422 41.8359 103.22 42.5781 102.816C43.3333 102.4 43.9583 101.833 44.4531 101.117C44.9479 100.401 45.319 99.5807 45.5664 98.6562C45.8268 97.7188 45.957 96.7227 45.957 95.668V95.2188C45.957 94.1771 45.8268 93.194 45.5664 92.2695C45.319 91.332 44.9414 90.5052 44.4336 89.7891C43.9388 89.0599 43.3138 88.487 42.5586 88.0703C41.8164 87.6536 40.944 87.4453 39.9414 87.4453C38.9518 87.4453 38.0794 87.6536 37.3242 88.0703C36.582 88.487 35.957 89.0599 35.4492 89.7891C34.9544 90.5052 34.5833 91.332 34.3359 92.2695C34.0885 93.194 33.9648 94.1771 33.9648 95.2188ZM60.2344 102.738L66.0156 84.8672H69.707L62.1094 106H59.6875L60.2344 102.738ZM55.4102 84.8672L61.3672 102.836L61.7773 106H59.3555L51.6992 84.8672H55.4102ZM85.332 102.387V91.5078C85.332 90.6745 85.1628 89.9518 84.8242 89.3398C84.4987 88.7148 84.0039 88.2331 83.3398 87.8945C82.6758 87.556 81.8555 87.3867 80.8789 87.3867C79.9674 87.3867 79.1667 87.543 78.4766 87.8555C77.7995 88.168 77.2656 88.5781 76.875 89.0859C76.4974 89.5938 76.3086 90.1406 76.3086 90.7266H72.6953C72.6953 89.9714 72.8906 89.2227 73.2812 88.4805C73.6719 87.7383 74.2318 87.0677 74.9609 86.4688C75.7031 85.8568 76.5885 85.375 77.6172 85.0234C78.6589 84.6589 79.8177 84.4766 81.0938 84.4766C82.6302 84.4766 83.9844 84.737 85.1562 85.2578C86.3411 85.7786 87.2656 86.5664 87.9297 87.6211C88.6068 88.6628 88.9453 89.9714 88.9453 91.5469V101.391C88.9453 102.094 89.0039 102.842 89.1211 103.637C89.2513 104.431 89.4401 105.115 89.6875 105.688V106H85.918C85.7357 105.583 85.5924 105.03 85.4883 104.34C85.3841 103.637 85.332 102.986 85.332 102.387ZM85.957 93.1875L85.9961 95.7266H82.3438C81.3151 95.7266 80.3971 95.8112 79.5898 95.9805C78.7826 96.1367 78.1055 96.3776 77.5586 96.7031C77.0117 97.0286 76.5951 97.4388 76.3086 97.9336C76.0221 98.4154 75.8789 98.9818 75.8789 99.6328C75.8789 100.297 76.0286 100.902 76.3281 101.449C76.6276 101.996 77.0768 102.432 77.6758 102.758C78.2878 103.07 79.0365 103.227 79.9219 103.227C81.0286 103.227 82.0052 102.992 82.8516 102.523C83.6979 102.055 84.3685 101.482 84.8633 100.805C85.3711 100.128 85.6445 99.4701 85.6836 98.832L87.2266 100.57C87.1354 101.117 86.888 101.723 86.4844 102.387C86.0807 103.051 85.5404 103.689 84.8633 104.301C84.1992 104.9 83.4049 105.401 82.4805 105.805C81.569 106.195 80.5404 106.391 79.3945 106.391C77.9622 106.391 76.7057 106.111 75.625 105.551C74.5573 104.991 73.724 104.242 73.125 103.305C72.5391 102.354 72.2461 101.293 72.2461 100.121C72.2461 98.9883 72.4674 97.9922 72.9102 97.1328C73.3529 96.2604 73.9909 95.5378 74.8242 94.9648C75.6576 94.3789 76.6602 93.9362 77.832 93.6367C79.0039 93.3372 80.3125 93.1875 81.7578 93.1875H85.957ZM105.312 92.6992H98.1055L98.0664 89.6719H104.609C105.69 89.6719 106.634 89.4896 107.441 89.125C108.249 88.7604 108.874 88.2396 109.316 87.5625C109.772 86.8724 110 86.0521 110 85.1016C110 84.0599 109.798 83.2135 109.395 82.5625C109.004 81.8984 108.398 81.4167 107.578 81.1172C106.771 80.8047 105.742 80.6484 104.492 80.6484H98.9453V106H95.1758V77.5625H104.492C105.951 77.5625 107.253 77.7122 108.398 78.0117C109.544 78.2982 110.514 78.7539 111.309 79.3789C112.116 79.9909 112.728 80.7721 113.145 81.7227C113.561 82.6732 113.77 83.8125 113.77 85.1406C113.77 86.3125 113.47 87.3737 112.871 88.3242C112.272 89.2617 111.439 90.0299 110.371 90.6289C109.316 91.2279 108.079 91.612 106.66 91.7812L105.312 92.6992ZM105.137 106H96.6211L98.75 102.934H105.137C106.335 102.934 107.35 102.725 108.184 102.309C109.03 101.892 109.674 101.306 110.117 100.551C110.56 99.7826 110.781 98.8776 110.781 97.8359C110.781 96.7812 110.592 95.8698 110.215 95.1016C109.837 94.3333 109.245 93.7409 108.438 93.3242C107.63 92.9076 106.589 92.6992 105.312 92.6992H99.9414L99.9805 89.6719H107.324L108.125 90.7656C109.492 90.8828 110.651 91.2734 111.602 91.9375C112.552 92.5885 113.275 93.4219 113.77 94.4375C114.277 95.4531 114.531 96.5729 114.531 97.7969C114.531 99.5677 114.141 101.065 113.359 102.289C112.591 103.5 111.504 104.424 110.098 105.062C108.691 105.688 107.038 106 105.137 106ZM132.012 102.387V91.5078C132.012 90.6745 131.842 89.9518 131.504 89.3398C131.178 88.7148 130.684 88.2331 130.02 87.8945C129.355 87.556 128.535 87.3867 127.559 87.3867C126.647 87.3867 125.846 87.543 125.156 87.8555C124.479 88.168 123.945 88.5781 123.555 89.0859C123.177 89.5938 122.988 90.1406 122.988 90.7266H119.375C119.375 89.9714 119.57 89.2227 119.961 88.4805C120.352 87.7383 120.911 87.0677 121.641 86.4688C122.383 85.8568 123.268 85.375 124.297 85.0234C125.339 84.6589 126.497 84.4766 127.773 84.4766C129.31 84.4766 130.664 84.737 131.836 85.2578C133.021 85.7786 133.945 86.5664 134.609 87.6211C135.286 88.6628 135.625 89.9714 135.625 91.5469V101.391C135.625 102.094 135.684 102.842 135.801 103.637C135.931 104.431 136.12 105.115 136.367 105.688V106H132.598C132.415 105.583 132.272 105.03 132.168 104.34C132.064 103.637 132.012 102.986 132.012 102.387ZM132.637 93.1875L132.676 95.7266H129.023C127.995 95.7266 127.077 95.8112 126.27 95.9805C125.462 96.1367 124.785 96.3776 124.238 96.7031C123.691 97.0286 123.275 97.4388 122.988 97.9336C122.702 98.4154 122.559 98.9818 122.559 99.6328C122.559 100.297 122.708 100.902 123.008 101.449C123.307 101.996 123.757 102.432 124.355 102.758C124.967 103.07 125.716 103.227 126.602 103.227C127.708 103.227 128.685 102.992 129.531 102.523C130.378 102.055 131.048 101.482 131.543 100.805C132.051 100.128 132.324 99.4701 132.363 98.832L133.906 100.57C133.815 101.117 133.568 101.723 133.164 102.387C132.76 103.051 132.22 103.689 131.543 104.301C130.879 104.9 130.085 105.401 129.16 105.805C128.249 106.195 127.22 106.391 126.074 106.391C124.642 106.391 123.385 106.111 122.305 105.551C121.237 104.991 120.404 104.242 119.805 103.305C119.219 102.354 118.926 101.293 118.926 100.121C118.926 98.9883 119.147 97.9922 119.59 97.1328C120.033 96.2604 120.671 95.5378 121.504 94.9648C122.337 94.3789 123.34 93.9362 124.512 93.6367C125.684 93.3372 126.992 93.1875 128.438 93.1875H132.637ZM144.922 89.3789V106H141.309V84.8672H144.727L144.922 89.3789ZM144.062 94.6328L142.559 94.5742C142.572 93.1289 142.786 91.7943 143.203 90.5703C143.62 89.3333 144.206 88.2591 144.961 87.3477C145.716 86.4362 146.615 85.7331 147.656 85.2383C148.711 84.7305 149.876 84.4766 151.152 84.4766C152.194 84.4766 153.132 84.6198 153.965 84.9062C154.798 85.1797 155.508 85.6224 156.094 86.2344C156.693 86.8464 157.148 87.6406 157.461 88.6172C157.773 89.5807 157.93 90.7591 157.93 92.1523V106H154.297V92.1133C154.297 91.0065 154.134 90.1211 153.809 89.457C153.483 88.7799 153.008 88.2917 152.383 87.9922C151.758 87.6797 150.99 87.5234 150.078 87.5234C149.18 87.5234 148.359 87.7122 147.617 88.0898C146.888 88.4674 146.257 88.9883 145.723 89.6523C145.202 90.3164 144.792 91.0781 144.492 91.9375C144.206 92.7839 144.062 93.6823 144.062 94.6328ZM167.051 76V106H163.418V76H167.051ZM179.961 84.8672L170.742 94.7305L165.586 100.082L165.293 96.2344L168.984 91.8203L175.547 84.8672H179.961ZM176.66 106L169.121 95.9219L170.996 92.6992L180.918 106H176.66Z" fill="white"/>
<rect x="90" y="26" width="29" height="28" fill="#082E52"/>
<rect x="67.7825" y="54.4022" width="6.28875" height="10.5978" fill="#02B48A"/>
<path d="M58 57.9348H67.7825V65L58 57.9348Z" fill="#02B48A"/>
<rect x="58" y="36.7391" width="9.7825" height="21.1957" fill="#02B48A"/>
<path d="M88.9999 53L74.0712 54.4022H67.7825V36.7391L88.9999 53Z" fill="#02B48A"/>
<path d="M58 29L63 33L67.7825 36.7391H58V29Z" fill="#02B48A"/>
<path d="M58 0V29L93 26L58 0Z" fill="#047770"/>
<path d="M93 56.8648V39.5775L111.03 53.348V39L127 52V65H103.253L93 56.8648Z" fill="#02B48A"/>
<path d="M93 10V26L127 52V16.3529L119.101 10H93Z" fill="#64CAB5"/>
<path d="M93 26L58 29L93 57V26Z" fill="#082E52"/>
</svg>
